<svg width="1920" height="1080" viewBox="0 0 1920 1080" fill="none" xmlns="http://www.w3.org/2000/svg">
  <defs>
    <linearGradient id="bgMain" x1="0" y1="0" x2="1" y2="1">
      <stop offset="0%" stop-color="#0A2D59"/>
      <stop offset="45%" stop-color="#123F75"/>
      <stop offset="100%" stop-color="#1B5C93"/>
    </linearGradient>
    <radialGradient id="bgGlow" cx="0" cy="0" r="1" gradientUnits="userSpaceOnUse" gradientTransform="translate(1440 240) rotate(155) scale(780 500)">
      <stop offset="0%" stop-color="#FFD56E" stop-opacity="0.45"/>
      <stop offset="100%" stop-color="#FFD56E" stop-opacity="0"/>
    </radialGradient>
    <linearGradient id="wave" x1="0" y1="0" x2="1" y2="0">
      <stop offset="0%" stop-color="#DDE9FA" stop-opacity="0.2"/>
      <stop offset="100%" stop-color="#BFD2EE" stop-opacity="0.05"/>
    </linearGradient>
  </defs>

  <rect width="1920" height="1080" fill="url(#bgMain)"/>
  <ellipse cx="1420" cy="240" rx="720" ry="440" fill="url(#bgGlow)"/>

  <path d="M0 844C260 772 522 775 752 860C994 950 1216 955 1452 886C1668 826 1804 805 1920 826V1080H0V844Z" fill="url(#wave)"/>
  <path d="M0 928C250 872 506 890 736 966C994 1050 1230 1048 1478 980C1660 932 1808 916 1920 926V1080H0V928Z" fill="#AFC6E8" fill-opacity="0.16"/>

  <g opacity="0.9">
    <rect x="1068" y="228" width="596" height="420" rx="38" fill="#E9F2FB"/>
    <rect x="1098" y="260" width="536" height="314" rx="20" fill="#0D3562"/>
    <rect x="1228" y="604" width="284" height="22" rx="11" fill="#C9D9EE"/>
    <rect x="1270" y="632" width="200" height="18" rx="9" fill="#B4CAE6"/>
  </g>

  <g opacity="0.97">
    <circle cx="706" cy="516" r="170" fill="#E7F1FC"/>
    <circle cx="706" cy="448" r="52" fill="#FFD56F"/>
    <rect x="632" y="508" width="148" height="162" rx="68" fill="#0D3562"/>
  </g>

  <g opacity="0.95">
    <circle cx="500" cy="586" r="140" fill="#DCEAF9"/>
    <circle cx="500" cy="536" r="40" fill="#FBD379"/>
    <rect x="444" y="574" width="112" height="118" rx="50" fill="#14467F"/>
  </g>

  <g opacity="0.95">
    <circle cx="922" cy="592" r="138" fill="#DCEAF9"/>
    <circle cx="922" cy="542" r="39" fill="#FBD379"/>
    <rect x="868" y="578" width="108" height="114" rx="49" fill="#14467F"/>
  </g>

  <rect x="422" y="694" width="640" height="34" rx="17" fill="#EAAA00" fill-opacity="0.9"/>
  <rect x="1118" y="730" width="132" height="28" rx="14" fill="#FFD56E" fill-opacity="0.35"/>
  <rect x="1324" y="714" width="164" height="28" rx="14" fill="#FFD56E" fill-opacity="0.28"/>

  <g opacity="0.65" stroke="#F2CC64" stroke-width="3">
    <path d="M1420 188V102"/>
    <path d="M1378 145H1462"/>
    <path d="M290 222V154"/>
    <path d="M256 188H324"/>
    <circle cx="1608" cy="560" r="8"/>
    <circle cx="272" cy="420" r="9"/>
  </g>
</svg>
